<svg width="103" height="87" viewBox="0 0 103 87" fill="none" xmlns="http://www.w3.org/2000/svg">
<path d="M100.274 25.1151H88.2666L84.9294 15.7866C81.4999 6.1958 73.3154 0 64.0759 0H38.6057C29.3682 0 21.1817 6.1958 17.7502 15.7866L14.413 25.1151H2.40791C0.841593 25.1151 -0.307575 26.761 0.0734752 28.4585L1.27679 33.8403C1.54353 35.0378 2.50618 35.8787 3.61123 35.8787H7.63632C4.9429 38.509 3.20812 42.3324 3.20812 46.6423V57.4059C3.20812 61.0207 4.44352 64.2834 6.41696 66.8083V78.9331C6.41696 82.8954 9.29088 86.1088 12.8347 86.1088H19.2523C22.7961 86.1088 25.67 82.8954 25.67 78.9331V71.7574H77.0116V78.9331C77.0116 82.8954 79.8855 86.1088 83.4292 86.1088H89.8469C93.3907 86.1088 96.2646 82.8954 96.2646 78.9331V66.8083C98.2381 64.2856 99.4735 61.0229 99.4735 57.4059V46.6423C99.4735 42.3324 97.7387 38.509 95.0473 35.8787H99.0724C100.177 35.8787 101.14 35.0378 101.407 33.8403L102.61 28.4585C102.989 26.761 101.84 25.1151 100.274 25.1151ZM29.667 21.1168C31.1291 17.0312 34.6688 14.3515 38.6057 14.3515H64.0759C68.0127 14.3515 71.5525 17.0312 73.0145 21.1168L77.0116 32.2908H25.67L29.667 21.1168ZM19.2523 57.361C15.4017 57.361 12.8347 54.4997 12.8347 50.2077C12.8347 45.9157 15.4017 43.0544 19.2523 43.0544C23.103 43.0544 28.8789 49.4924 28.8789 53.7844C28.8789 58.0764 23.103 57.361 19.2523 57.361ZM83.4292 57.361C79.5786 57.361 73.8027 58.0764 73.8027 53.7844C73.8027 49.4924 79.5786 43.0544 83.4292 43.0544C87.2799 43.0544 89.8469 45.9157 89.8469 50.2077C89.8469 54.4997 87.2799 57.361 83.4292 57.361Z" fill="white" fill-opacity="0.6"/>
</svg>
